<mxfile host="app.diagrams.net" agent="Mozilla/5.0 (Windows NT 10.0; Win64; x64) AppleWebKit/537.36 (KHTML, like Gecko) Chrome/131.0.0.0 Safari/537.36 Edg/131.0.0.0" version="24.8.4">
  <diagram name="Page-1" id="IcBuKPRWs8FiyKwLEHnq">
    <mxGraphModel dx="1865" dy="856" grid="1" gridSize="10" guides="1" tooltips="1" connect="1" arrows="1" fold="1" page="1" pageScale="1" pageWidth="850" pageHeight="1100" math="0" shadow="0">
      <root>
        <mxCell id="0" />
        <mxCell id="1" parent="0" />
        <mxCell id="5jHRk-9XrPLKa1eZIRj0-3" value="East_West_Light" style="swimlane;fontStyle=1;align=center;verticalAlign=middle;startSize=25;container=0;collapsible=0;rounded=1;arcSize=14;dropTarget=0;verticalAlign=top;" vertex="1" parent="1">
          <mxGeometry x="296" y="80" width="290" height="465" as="geometry" />
        </mxCell>
        <mxCell id="5jHRk-9XrPLKa1eZIRj0-4" value="" style="ellipse;fillColor=strokeColor;" vertex="1" parent="5jHRk-9XrPLKa1eZIRj0-3">
          <mxGeometry x="148" y="46" width="14" height="14" as="geometry" />
        </mxCell>
        <mxCell id="5jHRk-9XrPLKa1eZIRj0-5" value="EW_Red" style="rounded=1;arcSize=40;strokeWidth=2" vertex="1" parent="5jHRk-9XrPLKa1eZIRj0-3">
          <mxGeometry x="118" y="135" width="73" height="35" as="geometry" />
        </mxCell>
        <mxCell id="5jHRk-9XrPLKa1eZIRj0-6" value="EW_Green" style="rounded=1;arcSize=40;strokeWidth=2" vertex="1" parent="5jHRk-9XrPLKa1eZIRj0-3">
          <mxGeometry x="44" y="267" width="90" height="35" as="geometry" />
        </mxCell>
        <mxCell id="5jHRk-9XrPLKa1eZIRj0-7" value="EW_Yellow" style="rounded=1;arcSize=40;strokeWidth=2" vertex="1" parent="5jHRk-9XrPLKa1eZIRj0-3">
          <mxGeometry x="108" y="399" width="93" height="35" as="geometry" />
        </mxCell>
        <mxCell id="5jHRk-9XrPLKa1eZIRj0-8" value="" style="curved=1;startArrow=none;;exitX=0.49;exitY=0.96;entryX=0.5;entryY=-0.01;rounded=0;" edge="1" parent="5jHRk-9XrPLKa1eZIRj0-3" source="5jHRk-9XrPLKa1eZIRj0-4" target="5jHRk-9XrPLKa1eZIRj0-5">
          <mxGeometry relative="1" as="geometry">
            <Array as="points" />
          </mxGeometry>
        </mxCell>
        <mxCell id="5jHRk-9XrPLKa1eZIRj0-9" value="Timer Expired" style="curved=1;startArrow=none;;exitX=0.27;exitY=0.98;entryX=0.5;entryY=0;rounded=0;" edge="1" parent="5jHRk-9XrPLKa1eZIRj0-3" source="5jHRk-9XrPLKa1eZIRj0-5" target="5jHRk-9XrPLKa1eZIRj0-6">
          <mxGeometry relative="1" as="geometry">
            <Array as="points">
              <mxPoint x="89" y="218" />
            </Array>
          </mxGeometry>
        </mxCell>
        <mxCell id="5jHRk-9XrPLKa1eZIRj0-10" value="Timer Expired" style="curved=1;startArrow=none;;exitX=0.5;exitY=0.99;entryX=0.32;entryY=0;rounded=0;" edge="1" parent="5jHRk-9XrPLKa1eZIRj0-3" source="5jHRk-9XrPLKa1eZIRj0-6" target="5jHRk-9XrPLKa1eZIRj0-7">
          <mxGeometry relative="1" as="geometry">
            <Array as="points">
              <mxPoint x="89" y="350" />
            </Array>
          </mxGeometry>
        </mxCell>
        <mxCell id="5jHRk-9XrPLKa1eZIRj0-11" value="Timer Expired" style="curved=1;startArrow=none;;exitX=0.69;exitY=0;entryX=0.74;entryY=0.98;rounded=0;" edge="1" parent="5jHRk-9XrPLKa1eZIRj0-3" source="5jHRk-9XrPLKa1eZIRj0-7" target="5jHRk-9XrPLKa1eZIRj0-5">
          <mxGeometry relative="1" as="geometry">
            <Array as="points">
              <mxPoint x="221" y="350" />
              <mxPoint x="221" y="218" />
            </Array>
          </mxGeometry>
        </mxCell>
        <mxCell id="5jHRk-9XrPLKa1eZIRj0-12" value="East_South_Light" style="swimlane;fontStyle=1;align=center;verticalAlign=middle;startSize=25;container=0;collapsible=0;rounded=1;arcSize=14;dropTarget=0;verticalAlign=top;" vertex="1" parent="1">
          <mxGeometry x="407" y="635" width="284" height="465" as="geometry" />
        </mxCell>
        <mxCell id="5jHRk-9XrPLKa1eZIRj0-13" value="" style="ellipse;fillColor=strokeColor;" vertex="1" parent="5jHRk-9XrPLKa1eZIRj0-12">
          <mxGeometry x="145" y="46" width="14" height="14" as="geometry" />
        </mxCell>
        <mxCell id="5jHRk-9XrPLKa1eZIRj0-14" value="ES_Green" style="rounded=1;arcSize=40;strokeWidth=2" vertex="1" parent="5jHRk-9XrPLKa1eZIRj0-12">
          <mxGeometry x="110" y="135" width="84" height="35" as="geometry" />
        </mxCell>
        <mxCell id="5jHRk-9XrPLKa1eZIRj0-15" value="ES_Yellow" style="rounded=1;arcSize=40;strokeWidth=2" vertex="1" parent="5jHRk-9XrPLKa1eZIRj0-12">
          <mxGeometry x="43" y="267" width="87" height="35" as="geometry" />
        </mxCell>
        <mxCell id="5jHRk-9XrPLKa1eZIRj0-16" value="ES_Red" style="rounded=1;arcSize=40;strokeWidth=2" vertex="1" parent="5jHRk-9XrPLKa1eZIRj0-12">
          <mxGeometry x="118" y="399" width="67" height="35" as="geometry" />
        </mxCell>
        <mxCell id="5jHRk-9XrPLKa1eZIRj0-17" value="" style="curved=1;startArrow=none;;exitX=0.49;exitY=0.96;entryX=0.5;entryY=-0.01;rounded=0;" edge="1" parent="5jHRk-9XrPLKa1eZIRj0-12" source="5jHRk-9XrPLKa1eZIRj0-13" target="5jHRk-9XrPLKa1eZIRj0-14">
          <mxGeometry relative="1" as="geometry">
            <Array as="points" />
          </mxGeometry>
        </mxCell>
        <mxCell id="5jHRk-9XrPLKa1eZIRj0-18" value="Timer Expired" style="curved=1;startArrow=none;;exitX=0.29;exitY=0.98;entryX=0.5;entryY=0;rounded=0;" edge="1" parent="5jHRk-9XrPLKa1eZIRj0-12" source="5jHRk-9XrPLKa1eZIRj0-14" target="5jHRk-9XrPLKa1eZIRj0-15">
          <mxGeometry relative="1" as="geometry">
            <Array as="points">
              <mxPoint x="86" y="218" />
            </Array>
          </mxGeometry>
        </mxCell>
        <mxCell id="5jHRk-9XrPLKa1eZIRj0-19" value="Timer Expired" style="curved=1;startArrow=none;;exitX=0.5;exitY=0.99;entryX=0.25;entryY=0;rounded=0;" edge="1" parent="5jHRk-9XrPLKa1eZIRj0-12" source="5jHRk-9XrPLKa1eZIRj0-15" target="5jHRk-9XrPLKa1eZIRj0-16">
          <mxGeometry relative="1" as="geometry">
            <Array as="points">
              <mxPoint x="86" y="350" />
            </Array>
          </mxGeometry>
        </mxCell>
        <mxCell id="5jHRk-9XrPLKa1eZIRj0-20" value="Timer Expired" style="curved=1;startArrow=none;;exitX=0.76;exitY=0;entryX=0.7;entryY=0.98;rounded=0;" edge="1" parent="5jHRk-9XrPLKa1eZIRj0-12" source="5jHRk-9XrPLKa1eZIRj0-16" target="5jHRk-9XrPLKa1eZIRj0-14">
          <mxGeometry relative="1" as="geometry">
            <Array as="points">
              <mxPoint x="217" y="350" />
              <mxPoint x="217" y="218" />
            </Array>
          </mxGeometry>
        </mxCell>
        <mxCell id="5jHRk-9XrPLKa1eZIRj0-21" value="North_South_Light" style="swimlane;fontStyle=1;align=center;verticalAlign=middle;startSize=25;container=0;collapsible=0;rounded=1;arcSize=14;dropTarget=0;verticalAlign=top;" vertex="1" parent="1">
          <mxGeometry x="20" y="635" width="286" height="465" as="geometry" />
        </mxCell>
        <mxCell id="5jHRk-9XrPLKa1eZIRj0-22" value="" style="ellipse;fillColor=strokeColor;" vertex="1" parent="5jHRk-9XrPLKa1eZIRj0-21">
          <mxGeometry x="146" y="46" width="14" height="14" as="geometry" />
        </mxCell>
        <mxCell id="5jHRk-9XrPLKa1eZIRj0-23" value="NS_Green" style="rounded=1;arcSize=40;strokeWidth=2" vertex="1" parent="5jHRk-9XrPLKa1eZIRj0-21">
          <mxGeometry x="110" y="135" width="86" height="35" as="geometry" />
        </mxCell>
        <mxCell id="5jHRk-9XrPLKa1eZIRj0-24" value="NS_Yellow" style="rounded=1;arcSize=40;strokeWidth=2" vertex="1" parent="5jHRk-9XrPLKa1eZIRj0-21">
          <mxGeometry x="43" y="267" width="88" height="35" as="geometry" />
        </mxCell>
        <mxCell id="5jHRk-9XrPLKa1eZIRj0-25" value="NS_Red" style="rounded=1;arcSize=40;strokeWidth=2" vertex="1" parent="5jHRk-9XrPLKa1eZIRj0-21">
          <mxGeometry x="119" y="399" width="69" height="35" as="geometry" />
        </mxCell>
        <mxCell id="5jHRk-9XrPLKa1eZIRj0-26" value="" style="curved=1;startArrow=none;;exitX=0.51;exitY=0.96;entryX=0.5;entryY=-0.01;rounded=0;" edge="1" parent="5jHRk-9XrPLKa1eZIRj0-21" source="5jHRk-9XrPLKa1eZIRj0-22" target="5jHRk-9XrPLKa1eZIRj0-23">
          <mxGeometry relative="1" as="geometry">
            <Array as="points" />
          </mxGeometry>
        </mxCell>
        <mxCell id="5jHRk-9XrPLKa1eZIRj0-27" value="Timer Expired" style="curved=1;startArrow=none;;exitX=0.3;exitY=0.98;entryX=0.5;entryY=0;rounded=0;" edge="1" parent="5jHRk-9XrPLKa1eZIRj0-21" source="5jHRk-9XrPLKa1eZIRj0-23" target="5jHRk-9XrPLKa1eZIRj0-24">
          <mxGeometry relative="1" as="geometry">
            <Array as="points">
              <mxPoint x="87" y="218" />
            </Array>
          </mxGeometry>
        </mxCell>
        <mxCell id="5jHRk-9XrPLKa1eZIRj0-28" value="Timer Expired" style="curved=1;startArrow=none;;exitX=0.5;exitY=0.99;entryX=0.24;entryY=0;rounded=0;" edge="1" parent="5jHRk-9XrPLKa1eZIRj0-21" source="5jHRk-9XrPLKa1eZIRj0-24" target="5jHRk-9XrPLKa1eZIRj0-25">
          <mxGeometry relative="1" as="geometry">
            <Array as="points">
              <mxPoint x="87" y="350" />
            </Array>
          </mxGeometry>
        </mxCell>
        <mxCell id="5jHRk-9XrPLKa1eZIRj0-29" value="Timer Expired" style="curved=1;startArrow=none;;exitX=0.74;exitY=0;entryX=0.7;entryY=0.98;rounded=0;" edge="1" parent="5jHRk-9XrPLKa1eZIRj0-21" source="5jHRk-9XrPLKa1eZIRj0-25" target="5jHRk-9XrPLKa1eZIRj0-23">
          <mxGeometry relative="1" as="geometry">
            <Array as="points">
              <mxPoint x="219" y="350" />
              <mxPoint x="219" y="218" />
            </Array>
          </mxGeometry>
        </mxCell>
        <mxCell id="5jHRk-9XrPLKa1eZIRj0-30" value="West_East_Light" style="swimlane;fontStyle=1;align=center;verticalAlign=middle;startSize=25;container=0;collapsible=0;rounded=1;arcSize=14;dropTarget=0;verticalAlign=top;" vertex="1" parent="1">
          <mxGeometry x="1067" y="80" width="291" height="465" as="geometry" />
        </mxCell>
        <mxCell id="5jHRk-9XrPLKa1eZIRj0-31" value="" style="ellipse;fillColor=strokeColor;" vertex="1" parent="5jHRk-9XrPLKa1eZIRj0-30">
          <mxGeometry x="148" y="46" width="14" height="14" as="geometry" />
        </mxCell>
        <mxCell id="5jHRk-9XrPLKa1eZIRj0-32" value="WE_Red" style="rounded=1;arcSize=40;strokeWidth=2" vertex="1" parent="5jHRk-9XrPLKa1eZIRj0-30">
          <mxGeometry x="119" y="135" width="74" height="35" as="geometry" />
        </mxCell>
        <mxCell id="5jHRk-9XrPLKa1eZIRj0-33" value="WE_Green" style="rounded=1;arcSize=40;strokeWidth=2" vertex="1" parent="5jHRk-9XrPLKa1eZIRj0-30">
          <mxGeometry x="44" y="267" width="91" height="35" as="geometry" />
        </mxCell>
        <mxCell id="5jHRk-9XrPLKa1eZIRj0-34" value="WE_Yellow" style="rounded=1;arcSize=40;strokeWidth=2" vertex="1" parent="5jHRk-9XrPLKa1eZIRj0-30">
          <mxGeometry x="109" y="399" width="93" height="35" as="geometry" />
        </mxCell>
        <mxCell id="5jHRk-9XrPLKa1eZIRj0-35" value="" style="curved=1;startArrow=none;;exitX=0.52;exitY=0.96;entryX=0.49;entryY=-0.01;rounded=0;" edge="1" parent="5jHRk-9XrPLKa1eZIRj0-30" source="5jHRk-9XrPLKa1eZIRj0-31" target="5jHRk-9XrPLKa1eZIRj0-32">
          <mxGeometry relative="1" as="geometry">
            <Array as="points" />
          </mxGeometry>
        </mxCell>
        <mxCell id="5jHRk-9XrPLKa1eZIRj0-36" value="Timer Expired" style="curved=1;startArrow=none;;exitX=0.26;exitY=0.98;entryX=0.49;entryY=0;rounded=0;" edge="1" parent="5jHRk-9XrPLKa1eZIRj0-30" source="5jHRk-9XrPLKa1eZIRj0-32" target="5jHRk-9XrPLKa1eZIRj0-33">
          <mxGeometry relative="1" as="geometry">
            <Array as="points">
              <mxPoint x="89" y="218" />
            </Array>
          </mxGeometry>
        </mxCell>
        <mxCell id="5jHRk-9XrPLKa1eZIRj0-37" value="Timer Expired" style="curved=1;startArrow=none;;exitX=0.49;exitY=0.99;entryX=0.31;entryY=0;rounded=0;" edge="1" parent="5jHRk-9XrPLKa1eZIRj0-30" source="5jHRk-9XrPLKa1eZIRj0-33" target="5jHRk-9XrPLKa1eZIRj0-34">
          <mxGeometry relative="1" as="geometry">
            <Array as="points">
              <mxPoint x="89" y="350" />
            </Array>
          </mxGeometry>
        </mxCell>
        <mxCell id="5jHRk-9XrPLKa1eZIRj0-38" value="Timer Expired" style="curved=1;startArrow=none;;exitX=0.68;exitY=0;entryX=0.73;entryY=0.98;rounded=0;" edge="1" parent="5jHRk-9XrPLKa1eZIRj0-30" source="5jHRk-9XrPLKa1eZIRj0-34" target="5jHRk-9XrPLKa1eZIRj0-32">
          <mxGeometry relative="1" as="geometry">
            <Array as="points">
              <mxPoint x="222" y="350" />
              <mxPoint x="222" y="218" />
            </Array>
          </mxGeometry>
        </mxCell>
        <mxCell id="5jHRk-9XrPLKa1eZIRj0-39" value="South_East_Light" style="swimlane;fontStyle=1;align=center;verticalAlign=middle;startSize=25;container=0;collapsible=0;rounded=1;arcSize=14;dropTarget=0;verticalAlign=top;" vertex="1" parent="1">
          <mxGeometry x="1170" y="635" width="284" height="465" as="geometry" />
        </mxCell>
        <mxCell id="5jHRk-9XrPLKa1eZIRj0-40" value="" style="ellipse;fillColor=strokeColor;" vertex="1" parent="5jHRk-9XrPLKa1eZIRj0-39">
          <mxGeometry x="145" y="46" width="14" height="14" as="geometry" />
        </mxCell>
        <mxCell id="5jHRk-9XrPLKa1eZIRj0-41" value="SE_Green" style="rounded=1;arcSize=40;strokeWidth=2" vertex="1" parent="5jHRk-9XrPLKa1eZIRj0-39">
          <mxGeometry x="110" y="135" width="84" height="35" as="geometry" />
        </mxCell>
        <mxCell id="5jHRk-9XrPLKa1eZIRj0-42" value="SE_Yellow" style="rounded=1;arcSize=0;strokeWidth=2" vertex="1" parent="5jHRk-9XrPLKa1eZIRj0-39">
          <mxGeometry x="108.5" y="255" width="87" height="52" as="geometry" />
        </mxCell>
        <mxCell id="5jHRk-9XrPLKa1eZIRj0-43" value="SE_Red" style="rounded=1;arcSize=40;strokeWidth=2" vertex="1" parent="5jHRk-9XrPLKa1eZIRj0-39">
          <mxGeometry x="128.5" y="430" width="67" height="35" as="geometry" />
        </mxCell>
        <mxCell id="5jHRk-9XrPLKa1eZIRj0-44" value="" style="curved=1;startArrow=none;;exitX=0.49;exitY=0.96;entryX=0.5;entryY=-0.01;rounded=0;" edge="1" parent="5jHRk-9XrPLKa1eZIRj0-39" source="5jHRk-9XrPLKa1eZIRj0-40" target="5jHRk-9XrPLKa1eZIRj0-41">
          <mxGeometry relative="1" as="geometry">
            <Array as="points" />
          </mxGeometry>
        </mxCell>
        <mxCell id="5jHRk-9XrPLKa1eZIRj0-45" value="Timer Expired" style="curved=1;startArrow=none;;exitX=0.29;exitY=0.98;entryX=0.5;entryY=0;rounded=0;" edge="1" parent="5jHRk-9XrPLKa1eZIRj0-39" source="5jHRk-9XrPLKa1eZIRj0-41" target="5jHRk-9XrPLKa1eZIRj0-42">
          <mxGeometry relative="1" as="geometry">
            <Array as="points">
              <mxPoint x="86" y="218" />
            </Array>
          </mxGeometry>
        </mxCell>
        <mxCell id="5jHRk-9XrPLKa1eZIRj0-46" value="Timer Expired" style="curved=1;startArrow=none;;exitX=0.5;exitY=0.99;entryX=0.25;entryY=0;rounded=0;" edge="1" parent="5jHRk-9XrPLKa1eZIRj0-39" source="5jHRk-9XrPLKa1eZIRj0-42" target="5jHRk-9XrPLKa1eZIRj0-43">
          <mxGeometry relative="1" as="geometry">
            <Array as="points" />
          </mxGeometry>
        </mxCell>
        <mxCell id="5jHRk-9XrPLKa1eZIRj0-47" value="Timer Expired" style="curved=1;startArrow=none;;entryX=0;entryY=0.75;rounded=0;exitX=0.179;exitY=0.486;exitDx=0;exitDy=0;exitPerimeter=0;entryDx=0;entryDy=0;" edge="1" parent="5jHRk-9XrPLKa1eZIRj0-39" source="5jHRk-9XrPLKa1eZIRj0-43" target="5jHRk-9XrPLKa1eZIRj0-41">
          <mxGeometry relative="1" as="geometry">
            <Array as="points">
              <mxPoint x="40" y="335" />
              <mxPoint x="30" y="225" />
            </Array>
            <mxPoint x="110" y="416" as="sourcePoint" />
          </mxGeometry>
        </mxCell>
        <mxCell id="5jHRk-9XrPLKa1eZIRj0-48" value="South_North_Light" style="swimlane;fontStyle=1;align=center;verticalAlign=middle;startSize=25;container=0;collapsible=0;rounded=1;arcSize=14;dropTarget=0;verticalAlign=top;" vertex="1" parent="1">
          <mxGeometry x="780" y="635" width="286" height="465" as="geometry" />
        </mxCell>
        <mxCell id="5jHRk-9XrPLKa1eZIRj0-49" value="" style="ellipse;fillColor=strokeColor;" vertex="1" parent="5jHRk-9XrPLKa1eZIRj0-48">
          <mxGeometry x="146" y="46" width="14" height="14" as="geometry" />
        </mxCell>
        <mxCell id="5jHRk-9XrPLKa1eZIRj0-50" value="SN_Green" style="rounded=1;arcSize=40;strokeWidth=2" vertex="1" parent="5jHRk-9XrPLKa1eZIRj0-48">
          <mxGeometry x="110" y="135" width="86" height="35" as="geometry" />
        </mxCell>
        <mxCell id="5jHRk-9XrPLKa1eZIRj0-51" value="SN_Yellow" style="rounded=1;arcSize=40;strokeWidth=2" vertex="1" parent="5jHRk-9XrPLKa1eZIRj0-48">
          <mxGeometry x="88" y="255" width="88" height="35" as="geometry" />
        </mxCell>
        <mxCell id="5jHRk-9XrPLKa1eZIRj0-52" value="SN_Red" style="rounded=1;arcSize=40;strokeWidth=2" vertex="1" parent="5jHRk-9XrPLKa1eZIRj0-48">
          <mxGeometry x="107" y="399" width="69" height="35" as="geometry" />
        </mxCell>
        <mxCell id="5jHRk-9XrPLKa1eZIRj0-53" value="" style="curved=1;startArrow=none;;exitX=0.51;exitY=0.96;entryX=0.5;entryY=-0.01;rounded=0;" edge="1" parent="5jHRk-9XrPLKa1eZIRj0-48" source="5jHRk-9XrPLKa1eZIRj0-49" target="5jHRk-9XrPLKa1eZIRj0-50">
          <mxGeometry relative="1" as="geometry">
            <Array as="points" />
          </mxGeometry>
        </mxCell>
        <mxCell id="5jHRk-9XrPLKa1eZIRj0-54" value="Timer Expired" style="curved=1;startArrow=none;;exitX=0.25;exitY=1;entryX=0.5;entryY=0;rounded=0;exitDx=0;exitDy=0;" edge="1" parent="5jHRk-9XrPLKa1eZIRj0-48" source="5jHRk-9XrPLKa1eZIRj0-50" target="5jHRk-9XrPLKa1eZIRj0-51">
          <mxGeometry relative="1" as="geometry">
            <Array as="points" />
          </mxGeometry>
        </mxCell>
        <mxCell id="5jHRk-9XrPLKa1eZIRj0-55" value="Timer Expired" style="curved=1;startArrow=none;;exitX=0.5;exitY=0.99;rounded=0;" edge="1" parent="5jHRk-9XrPLKa1eZIRj0-48" source="5jHRk-9XrPLKa1eZIRj0-51">
          <mxGeometry relative="1" as="geometry">
            <Array as="points" />
            <mxPoint x="132" y="395" as="targetPoint" />
          </mxGeometry>
        </mxCell>
        <mxCell id="5jHRk-9XrPLKa1eZIRj0-56" value="Timer Expired" style="curved=1;startArrow=none;;exitX=0.74;exitY=0;entryX=0.7;entryY=0.98;rounded=0;" edge="1" parent="5jHRk-9XrPLKa1eZIRj0-48" source="5jHRk-9XrPLKa1eZIRj0-52" target="5jHRk-9XrPLKa1eZIRj0-50">
          <mxGeometry relative="1" as="geometry">
            <Array as="points">
              <mxPoint x="219" y="350" />
              <mxPoint x="219" y="218" />
            </Array>
          </mxGeometry>
        </mxCell>
        <mxCell id="5jHRk-9XrPLKa1eZIRj0-57" value="east_west_light&#xa;to&#xa;North_south_light" style="curved=1;startArrow=none;;exitX=0;exitY=0.81;entryX=0.5;entryY=0;rounded=0;" edge="1" parent="1" source="5jHRk-9XrPLKa1eZIRj0-3" target="5jHRk-9XrPLKa1eZIRj0-21">
          <mxGeometry relative="1" as="geometry">
            <Array as="points">
              <mxPoint x="163" y="590" />
            </Array>
          </mxGeometry>
        </mxCell>
        <mxCell id="5jHRk-9XrPLKa1eZIRj0-58" value="east_west_light&#xa;to&#xa;east_south_light" style="curved=1;startArrow=none;;exitX=0.5;exitY=1;entryX=0.18;entryY=0;rounded=0;" edge="1" parent="1" source="5jHRk-9XrPLKa1eZIRj0-3" target="5jHRk-9XrPLKa1eZIRj0-12">
          <mxGeometry relative="1" as="geometry">
            <Array as="points">
              <mxPoint x="441" y="590" />
            </Array>
          </mxGeometry>
        </mxCell>
        <mxCell id="5jHRk-9XrPLKa1eZIRj0-59" value="east_south_light&#xa;to&#xa;east_west_light" style="curved=1;startArrow=none;;exitX=0.82;exitY=0;entryX=1;entryY=0.9;rounded=0;" edge="1" parent="1" source="5jHRk-9XrPLKa1eZIRj0-12" target="5jHRk-9XrPLKa1eZIRj0-3">
          <mxGeometry relative="1" as="geometry">
            <Array as="points">
              <mxPoint x="658" y="590" />
            </Array>
          </mxGeometry>
        </mxCell>
        <mxCell id="5jHRk-9XrPLKa1eZIRj0-60" value="west_east_light&#xa;to&#xa;south_north_light" style="curved=1;startArrow=none;;exitX=0;exitY=0.81;entryX=0.5;entryY=0;rounded=0;" edge="1" parent="1" source="5jHRk-9XrPLKa1eZIRj0-30" target="5jHRk-9XrPLKa1eZIRj0-48">
          <mxGeometry relative="1" as="geometry">
            <Array as="points">
              <mxPoint x="935" y="590" />
            </Array>
          </mxGeometry>
        </mxCell>
        <mxCell id="5jHRk-9XrPLKa1eZIRj0-61" value="west_east_light&#xa;to&#xa;South_east_light" style="curved=1;startArrow=none;;exitX=0.5;exitY=1;entryX=0.17;entryY=0;rounded=0;" edge="1" parent="1" source="5jHRk-9XrPLKa1eZIRj0-30" target="5jHRk-9XrPLKa1eZIRj0-39">
          <mxGeometry relative="1" as="geometry">
            <Array as="points">
              <mxPoint x="1213" y="590" />
            </Array>
          </mxGeometry>
        </mxCell>
        <mxCell id="5jHRk-9XrPLKa1eZIRj0-62" value="South_east&#xa;to&#xa;west_east" style="curved=1;startArrow=none;;exitX=0.82;exitY=0;entryX=1;entryY=0.89;rounded=0;" edge="1" parent="1" source="5jHRk-9XrPLKa1eZIRj0-39" target="5jHRk-9XrPLKa1eZIRj0-30">
          <mxGeometry relative="1" as="geometry">
            <Array as="points">
              <mxPoint x="1433" y="590" />
            </Array>
          </mxGeometry>
        </mxCell>
      </root>
    </mxGraphModel>
  </diagram>
</mxfile>
